<svg width="99" height="99" viewBox="0 0 99 99" fill="none" xmlns="http://www.w3.org/2000/svg">
<circle cx="49.5" cy="49.5" r="49.5" fill="#43506D"/>
<path d="M49.5 0C22.1636 0 0 22.1014 0 49.361C0 72.4907 15.972 91.8443 37.5045 97.2C37.2735 96.5336 37.125 95.7603 37.125 94.8019V86.3653C35.1161 86.3653 31.7501 86.3653 30.9045 86.3653C27.5179 86.3653 24.5066 84.9132 23.0464 82.2148C21.4252 79.2161 21.1447 74.6297 17.127 71.8243C15.9349 70.8906 16.8424 69.8252 18.216 69.9692C20.7529 70.6849 22.8566 72.4208 24.8366 74.9958C26.8084 77.5749 27.7365 78.159 31.4201 78.159C33.2062 78.159 35.8792 78.0562 38.3955 77.6613C39.7485 74.2348 42.0874 71.0798 44.946 69.5908C28.4625 67.9001 20.5961 59.7227 20.5961 48.6206C20.5961 43.8408 22.638 39.2173 26.1071 35.3219C24.9686 31.4553 23.5373 23.5699 26.5444 20.5671C33.9611 20.5671 38.445 25.3633 39.5216 26.659C43.2176 25.3962 47.2766 24.6805 51.5419 24.6805C55.8154 24.6805 59.8909 25.3962 63.5951 26.6673C64.6594 25.3798 69.1474 20.5671 76.5806 20.5671C79.6001 23.574 78.1522 31.4923 77.0014 35.3507C80.4499 39.2379 82.4794 43.849 82.4794 48.6206C82.4794 59.7144 74.6254 67.8878 58.1666 69.5866C62.6959 71.9436 66 78.5662 66 83.5558V94.8019C66 95.2297 65.9051 95.5382 65.8556 95.9043C85.1441 89.1624 99 70.8988 99 49.361C99 22.1014 76.8364 0 49.5 0Z" fill="#53A89A"/>
</svg>
